<?xml version="1.0" standalone="no"?>
<svg xmlns="http://www.w3.org/2000/svg" width="1120" height="539.8000030517578"><g transform="translate(70,20)"><g class="x axis" transform="translate(0,400)" fill="none" font-size="10" font-family="sans-serif" text-anchor="middle"><path class="domain" stroke="#000" d="M0.5,6V0.5H1000.5V6"/><g class="tick" opacity="1" transform="translate(34.16149068322984,0)"><line stroke="#000" y2="6"/><text fill="#000" y="9" dy="-0.5em" style="text-anchor: end;" dx="-.8em" transform="rotate(-90)">BAQ2420 (n=3)</text></g><g class="tick" opacity="1" transform="translate(96.27329192546587,0)"><line stroke="#000" y2="6"/><text fill="#000" y="9" dy="-0.5em" style="text-anchor: end;" dx="-.8em" transform="rotate(-90)">BAQ2462 (n=2)</text></g><g class="tick" opacity="1" transform="translate(158.38509316770188,0)"><line stroke="#000" y2="6"/><text fill="#000" y="9" dy="-0.5em" style="text-anchor: end;" dx="-.8em" transform="rotate(-90)">BAQ2687 (n=3)</text></g><g class="tick" opacity="1" transform="translate(220.49689440993788,0)"><line stroke="#000" y2="6"/><text fill="#000" y="9" dy="-0.5em" style="text-anchor: end;" dx="-.8em" transform="rotate(-90)">BAQ3473 (n=3)</text></g><g class="tick" opacity="1" transform="translate(282.60869565217394,0)"><line stroke="#000" y2="6"/><text fill="#000" y="9" dy="-0.5em" style="text-anchor: end;" dx="-.8em" transform="rotate(-90)">BAQ4166 (n=5)</text></g><g class="tick" opacity="1" transform="translate(344.7204968944099,0)"><line stroke="#000" y2="6"/><text fill="#000" y="9" dy="-0.5em" style="text-anchor: end;" dx="-.8em" transform="rotate(-90)">BAQ4697 (n=3)</text></g><g class="tick" opacity="1" transform="translate(406.83229813664593,0)"><line stroke="#000" y2="6"/><text fill="#000" y="9" dy="-0.5em" style="text-anchor: end;" dx="-.8em" transform="rotate(-90)">YUN1005 (n=2)</text></g><g class="tick" opacity="1" transform="translate(468.94409937888196,0)"><line stroke="#000" y2="6"/><text fill="#000" y="9" dy="-0.5em" style="text-anchor: end;" dx="-.8em" transform="rotate(-90)">YUN1242 (n=2)</text></g><g class="tick" opacity="1" transform="translate(531.055900621118,0)"><line stroke="#000" y2="6"/><text fill="#000" y="9" dy="-0.5em" style="text-anchor: end;" dx="-.8em" transform="rotate(-90)">YUN1609 (n=1)</text></g><g class="tick" opacity="1" transform="translate(593.167701863354,0)"><line stroke="#000" y2="6"/><text fill="#000" y="9" dy="-0.5em" style="text-anchor: end;" dx="-.8em" transform="rotate(-90)">YUN2029 (n=1)</text></g><g class="tick" opacity="1" transform="translate(655.2795031055899,0)"><line stroke="#000" y2="6"/><text fill="#000" y="9" dy="-0.5em" style="text-anchor: end;" dx="-.8em" transform="rotate(-90)">YUN3153 (n=1)</text></g><g class="tick" opacity="1" transform="translate(717.3913043478261,0)"><line stroke="#000" y2="6"/><text fill="#000" y="9" dy="-0.5em" style="text-anchor: end;" dx="-.8em" transform="rotate(-90)">YUN3259 (n=2)</text></g><g class="tick" opacity="1" transform="translate(779.5031055900621,0)"><line stroke="#000" y2="6"/><text fill="#000" y="9" dy="-0.5em" style="text-anchor: end;" dx="-.8em" transform="rotate(-90)">YUN3346 (n=2)</text></g><g class="tick" opacity="1" transform="translate(841.6149068322981,0)"><line stroke="#000" y2="6"/><text fill="#000" y="9" dy="-0.5em" style="text-anchor: end;" dx="-.8em" transform="rotate(-90)">YUN3428 (n=3)</text></g><g class="tick" opacity="1" transform="translate(903.726708074534,0)"><line stroke="#000" y2="6"/><text fill="#000" y="9" dy="-0.5em" style="text-anchor: end;" dx="-.8em" transform="rotate(-90)">YUN3533 (n=5)</text></g><g class="tick" opacity="1" transform="translate(965.8385093167702,0)"><line stroke="#000" y2="6"/><text fill="#000" y="9" dy="-0.5em" style="text-anchor: end;" dx="-.8em" transform="rotate(-90)">YUN3856 (n=5)</text></g></g><g class="y axis" fill="none" font-size="10" font-family="sans-serif" text-anchor="end"><path class="domain" stroke="#000" d="M-6,400.5H0.5V0.5H-6"/><g class="tick" opacity="1" transform="translate(0,400.5)"><line stroke="#000" x2="-6"/><text fill="#000" x="-9" dy="0.32em">15</text></g><g class="tick" opacity="1" transform="translate(0,356.05555555555554)"><line stroke="#000" x2="-6"/><text fill="#000" x="-9" dy="0.32em">20</text></g><g class="tick" opacity="1" transform="translate(0,311.6111111111111)"><line stroke="#000" x2="-6"/><text fill="#000" x="-9" dy="0.32em">25</text></g><g class="tick" opacity="1" transform="translate(0,267.1666666666667)"><line stroke="#000" x2="-6"/><text fill="#000" x="-9" dy="0.32em">30</text></g><g class="tick" opacity="1" transform="translate(0,222.72222222222223)"><line stroke="#000" x2="-6"/><text fill="#000" x="-9" dy="0.32em">35</text></g><g class="tick" opacity="1" transform="translate(0,178.27777777777777)"><line stroke="#000" x2="-6"/><text fill="#000" x="-9" dy="0.32em">40</text></g><g class="tick" opacity="1" transform="translate(0,133.83333333333337)"><line stroke="#000" x2="-6"/><text fill="#000" x="-9" dy="0.32em">45</text></g><g class="tick" opacity="1" transform="translate(0,89.38888888888886)"><line stroke="#000" x2="-6"/><text fill="#000" x="-9" dy="0.32em">50</text></g><g class="tick" opacity="1" transform="translate(0,44.94444444444446)"><line stroke="#000" x2="-6"/><text fill="#000" x="-9" dy="0.32em">55</text></g><g class="tick" opacity="1" transform="translate(0,0.5)"><line stroke="#000" x2="-6"/><text fill="#000" x="-9" dy="0.32em">60</text></g></g><text class="x label" text-anchor="middle" style="font: 12px sans-serif;" transform="translate(500,509.8000030517578)">site-name</text><text class="y label" text-anchor="middle" style="font: 12px sans-serif;" transform="translate(-50,200)rotate(-90)">observed_features</text><g class="outlier" transform="translate(34.16149068322984,0)"/><line class="center" x1="34.16149068322984" y1="204.44444444444446" x2="34.16149068322984" y2="124.44444444444446" stroke-dasharray="2,2" stroke-width="1" stroke="black"/><line class="center" x1="96.27329192546587" y1="284.44444444444446" x2="96.27329192546587" y2="231.11111111111111" stroke-dasharray="2,2" stroke-width="1" stroke="black"/><line class="center" x1="158.38509316770188" y1="284.44444444444446" x2="158.38509316770188" y2="213.33333333333334" stroke-dasharray="2,2" stroke-width="1" stroke="black"/><line class="center" x1="220.49689440993788" y1="168.8888888888889" x2="220.49689440993788" y2="62.22222222222223" stroke-dasharray="2,2" stroke-width="1" stroke="black"/><line class="center" x1="282.60869565217394" y1="240" x2="282.60869565217394" y2="106.66666666666669" stroke-dasharray="2,2" stroke-width="1" stroke="black"/><line class="center" x1="344.7204968944099" y1="266.6666666666667" x2="344.7204968944099" y2="160" stroke-dasharray="2,2" stroke-width="1" stroke="black"/><line class="center" x1="406.83229813664593" y1="355.55555555555554" x2="406.83229813664593" y2="266.6666666666667" stroke-dasharray="2,2" stroke-width="1" stroke="black"/><line class="center" x1="468.94409937888196" y1="346.6666666666667" x2="468.94409937888196" y2="302.22222222222223" stroke-dasharray="2,2" stroke-width="1" stroke="black"/><line class="center" x1="531.055900621118" y1="364.44444444444446" x2="531.055900621118" y2="364.44444444444446" stroke-dasharray="2,2" stroke-width="1" stroke="black"/><line class="center" x1="593.167701863354" y1="240" x2="593.167701863354" y2="240" stroke-dasharray="2,2" stroke-width="1" stroke="black"/><line class="center" x1="655.2795031055899" y1="266.6666666666667" x2="655.2795031055899" y2="266.6666666666667" stroke-dasharray="2,2" stroke-width="1" stroke="black"/><line class="center" x1="717.3913043478261" y1="257.77777777777777" x2="717.3913043478261" y2="240" stroke-dasharray="2,2" stroke-width="1" stroke="black"/><line class="center" x1="779.5031055900621" y1="302.22222222222223" x2="779.5031055900621" y2="231.11111111111111" stroke-dasharray="2,2" stroke-width="1" stroke="black"/><line class="center" x1="841.6149068322981" y1="213.33333333333334" x2="841.6149068322981" y2="62.22222222222223" stroke-dasharray="2,2" stroke-width="1" stroke="black"/><line class="center" x1="903.726708074534" y1="266.6666666666667" x2="903.726708074534" y2="204.44444444444446" stroke-dasharray="2,2" stroke-width="1" stroke="black"/><line class="center" x1="965.8385093167702" y1="160" x2="965.8385093167702" y2="124.44444444444446" stroke-dasharray="2,2" stroke-width="1" stroke="black"/><g class="outlier" transform="translate(96.27329192546587,0)"/><g class="outlier" transform="translate(158.38509316770188,0)"/><g class="outlier" transform="translate(220.49689440993788,0)"/><g class="outlier" transform="translate(282.60869565217394,0)"/><g class="outlier" transform="translate(344.7204968944099,0)"/><g class="outlier" transform="translate(406.83229813664593,0)"/><g class="outlier" transform="translate(468.94409937888196,0)"/><g class="outlier" transform="translate(531.055900621118,0)"/><g class="outlier" transform="translate(593.167701863354,0)"/><g class="outlier" transform="translate(655.2795031055899,0)"/><g class="outlier" transform="translate(717.3913043478261,0)"/><g class="outlier" transform="translate(779.5031055900621,0)"/><g class="outlier" transform="translate(841.6149068322981,0)"/><g class="outlier" transform="translate(903.726708074534,0)"><circle r="4" stroke-width="1" stroke="black" stroke-opacity="0.3" fill="black" fill-opacity="0.33" cx="0" cy="62.22222222222223"/></g><g class="outlier" transform="translate(965.8385093167702,0)"><circle r="4" stroke-width="1" stroke="black" stroke-opacity="0.3" fill="black" fill-opacity="0.33" cx="0" cy="240"/><circle r="4" stroke-width="1" stroke="black" stroke-opacity="0.3" fill="black" fill-opacity="0.33" cx="0" cy="26.666666666666686"/></g><rect class="box" x="6.211180124223631" y="133.33333333333337" width="55.90062111801242" height="39.99999999999997" fill="white" stroke-width="1" stroke="black"/><rect class="box" x="68.32298136645966" y="244.44444444444443" width="55.90062111801242" height="26.666666666666657" fill="white" stroke-width="1" stroke="black"/><rect class="box" x="130.43478260869568" y="213.33333333333334" width="55.90062111801242" height="35.55555555555554" fill="white" stroke-width="1" stroke="black"/><rect class="box" x="192.54658385093168" y="102.22222222222223" width="55.90062111801242" height="53.333333333333314" fill="white" stroke-width="1" stroke="black"/><rect class="box" x="254.6583850931677" y="133.33333333333337" width="55.90062111801242" height="44.4444444444444" fill="white" stroke-width="1" stroke="black"/><rect class="box" x="316.7701863354037" y="177.77777777777777" width="55.90062111801242" height="53.33333333333334" fill="white" stroke-width="1" stroke="black"/><rect class="box" x="378.88198757763973" y="288.8888888888889" width="55.90062111801242" height="44.44444444444446" fill="white" stroke-width="1" stroke="black"/><rect class="box" x="440.99378881987576" y="313.3333333333333" width="55.90062111801242" height="22.22222222222223" fill="white" stroke-width="1" stroke="black"/><rect class="box" x="503.1055900621118" y="364.44444444444446" width="55.90062111801242" height="0" fill="white" stroke-width="1" stroke="black"/><rect class="box" x="565.2173913043478" y="240" width="55.90062111801242" height="0" fill="white" stroke-width="1" stroke="black"/><rect class="box" x="627.3291925465837" y="266.6666666666667" width="55.90062111801242" height="0" fill="white" stroke-width="1" stroke="black"/><rect class="box" x="689.4409937888199" y="244.44444444444443" width="55.90062111801242" height="8.888888888888914" fill="white" stroke-width="1" stroke="black"/><rect class="box" x="751.5527950310559" y="248.88888888888889" width="55.90062111801242" height="35.55555555555557" fill="white" stroke-width="1" stroke="black"/><rect class="box" x="813.6645962732919" y="84.44444444444446" width="55.90062111801242" height="75.55555555555554" fill="white" stroke-width="1" stroke="black"/><rect class="box" x="875.7763975155278" y="204.44444444444446" width="55.90062111801242" height="62.22222222222223" fill="white" stroke-width="1" stroke="black"/><rect class="box" x="937.888198757764" y="124.44444444444446" width="55.90062111801242" height="35.55555555555554" fill="white" stroke-width="1" stroke="black"/><line class="median" x1="6.211180124223631" y1="142.22222222222223" x2="62.11180124223605" y2="142.22222222222223" stroke-width="1" stroke="black"/><line class="median" x1="68.32298136645966" y1="257.77777777777777" x2="124.22360248447208" y2="257.77777777777777" stroke-width="1" stroke="black"/><line class="median" x1="130.43478260869568" y1="213.33333333333334" x2="186.3354037267081" y2="213.33333333333334" stroke-width="1" stroke="black"/><line class="median" x1="192.54658385093168" y1="142.22222222222223" x2="248.4472049689441" y2="142.22222222222223" stroke-width="1" stroke="black"/><line class="median" x1="254.6583850931677" y1="151.11111111111111" x2="310.55900621118013" y2="151.11111111111111" stroke-width="1" stroke="black"/><line class="median" x1="316.7701863354037" y1="195.55555555555557" x2="372.6708074534161" y2="195.55555555555557" stroke-width="1" stroke="black"/><line class="median" x1="378.88198757763973" y1="311.1111111111111" x2="434.78260869565213" y2="311.1111111111111" stroke-width="1" stroke="black"/><line class="median" x1="440.99378881987576" y1="324.44444444444446" x2="496.89440993788816" y2="324.44444444444446" stroke-width="1" stroke="black"/><line class="median" x1="503.1055900621118" y1="364.44444444444446" x2="559.0062111801242" y2="364.44444444444446" stroke-width="1" stroke="black"/><line class="median" x1="565.2173913043478" y1="240" x2="621.1180124223602" y2="240" stroke-width="1" stroke="black"/><line class="median" x1="627.3291925465837" y1="266.6666666666667" x2="683.2298136645961" y2="266.6666666666667" stroke-width="1" stroke="black"/><line class="median" x1="689.4409937888199" y1="248.88888888888889" x2="745.3416149068323" y2="248.88888888888889" stroke-width="1" stroke="black"/><line class="median" x1="751.5527950310559" y1="266.6666666666667" x2="807.4534161490683" y2="266.6666666666667" stroke-width="1" stroke="black"/><line class="median" x1="813.6645962732919" y1="106.66666666666669" x2="869.5652173913043" y2="106.66666666666669" stroke-width="1" stroke="black"/><line class="median" x1="875.7763975155278" y1="248.88888888888889" x2="931.6770186335402" y2="248.88888888888889" stroke-width="1" stroke="black"/><line class="median" x1="937.888198757764" y1="133.33333333333337" x2="993.7888198757764" y2="133.33333333333337" stroke-width="1" stroke="black"/><g class="whisker" transform="translate(20.186335403726737,0)"><line class="median" x1="0" y1="204.44444444444446" x2="27.95031055900621" y2="204.44444444444446" stroke-width="1" stroke="black"/><line class="median" x1="0" y1="124.44444444444446" x2="27.95031055900621" y2="124.44444444444446" stroke-width="1" stroke="black"/></g><g class="whisker" transform="translate(82.29813664596276,0)"><line class="median" x1="0" y1="284.44444444444446" x2="27.95031055900621" y2="284.44444444444446" stroke-width="1" stroke="black"/><line class="median" x1="0" y1="231.11111111111111" x2="27.95031055900621" y2="231.11111111111111" stroke-width="1" stroke="black"/></g><g class="whisker" transform="translate(144.40993788819878,0)"><line class="median" x1="0" y1="284.44444444444446" x2="27.95031055900621" y2="284.44444444444446" stroke-width="1" stroke="black"/><line class="median" x1="0" y1="213.33333333333334" x2="27.95031055900621" y2="213.33333333333334" stroke-width="1" stroke="black"/></g><g class="whisker" transform="translate(206.52173913043478,0)"><line class="median" x1="0" y1="168.8888888888889" x2="27.95031055900621" y2="168.8888888888889" stroke-width="1" stroke="black"/><line class="median" x1="0" y1="62.22222222222223" x2="27.95031055900621" y2="62.22222222222223" stroke-width="1" stroke="black"/></g><g class="whisker" transform="translate(268.63354037267084,0)"><line class="median" x1="0" y1="240" x2="27.95031055900621" y2="240" stroke-width="1" stroke="black"/><line class="median" x1="0" y1="106.66666666666669" x2="27.95031055900621" y2="106.66666666666669" stroke-width="1" stroke="black"/></g><g class="whisker" transform="translate(330.7453416149068,0)"><line class="median" x1="0" y1="266.6666666666667" x2="27.95031055900621" y2="266.6666666666667" stroke-width="1" stroke="black"/><line class="median" x1="0" y1="160" x2="27.95031055900621" y2="160" stroke-width="1" stroke="black"/></g><g class="whisker" transform="translate(392.85714285714283,0)"><line class="median" x1="0" y1="355.55555555555554" x2="27.95031055900621" y2="355.55555555555554" stroke-width="1" stroke="black"/><line class="median" x1="0" y1="266.6666666666667" x2="27.95031055900621" y2="266.6666666666667" stroke-width="1" stroke="black"/></g><g class="whisker" transform="translate(454.96894409937886,0)"><line class="median" x1="0" y1="346.6666666666667" x2="27.95031055900621" y2="346.6666666666667" stroke-width="1" stroke="black"/><line class="median" x1="0" y1="302.22222222222223" x2="27.95031055900621" y2="302.22222222222223" stroke-width="1" stroke="black"/></g><g class="whisker" transform="translate(517.0807453416149,0)"><line class="median" x1="0" y1="364.44444444444446" x2="27.95031055900621" y2="364.44444444444446" stroke-width="1" stroke="black"/><line class="median" x1="0" y1="364.44444444444446" x2="27.95031055900621" y2="364.44444444444446" stroke-width="1" stroke="black"/></g><g class="whisker" transform="translate(579.1925465838509,0)"><line class="median" x1="0" y1="240" x2="27.95031055900621" y2="240" stroke-width="1" stroke="black"/><line class="median" x1="0" y1="240" x2="27.95031055900621" y2="240" stroke-width="1" stroke="black"/></g><g class="whisker" transform="translate(641.3043478260869,0)"><line class="median" x1="0" y1="266.6666666666667" x2="27.95031055900621" y2="266.6666666666667" stroke-width="1" stroke="black"/><line class="median" x1="0" y1="266.6666666666667" x2="27.95031055900621" y2="266.6666666666667" stroke-width="1" stroke="black"/></g><g class="whisker" transform="translate(703.4161490683231,0)"><line class="median" x1="0" y1="257.77777777777777" x2="27.95031055900621" y2="257.77777777777777" stroke-width="1" stroke="black"/><line class="median" x1="0" y1="240" x2="27.95031055900621" y2="240" stroke-width="1" stroke="black"/></g><g class="whisker" transform="translate(765.527950310559,0)"><line class="median" x1="0" y1="302.22222222222223" x2="27.95031055900621" y2="302.22222222222223" stroke-width="1" stroke="black"/><line class="median" x1="0" y1="231.11111111111111" x2="27.95031055900621" y2="231.11111111111111" stroke-width="1" stroke="black"/></g><g class="whisker" transform="translate(827.639751552795,0)"><line class="median" x1="0" y1="213.33333333333334" x2="27.95031055900621" y2="213.33333333333334" stroke-width="1" stroke="black"/><line class="median" x1="0" y1="62.22222222222223" x2="27.95031055900621" y2="62.22222222222223" stroke-width="1" stroke="black"/></g><g class="whisker" transform="translate(889.751552795031,0)"><line class="median" x1="0" y1="266.6666666666667" x2="27.95031055900621" y2="266.6666666666667" stroke-width="1" stroke="black"/><line class="median" x1="0" y1="204.44444444444446" x2="27.95031055900621" y2="204.44444444444446" stroke-width="1" stroke="black"/></g><g class="whisker" transform="translate(951.8633540372672,0)"><line class="median" x1="0" y1="160" x2="27.95031055900621" y2="160" stroke-width="1" stroke="black"/><line class="median" x1="0" y1="124.44444444444446" x2="27.95031055900621" y2="124.44444444444446" stroke-width="1" stroke="black"/></g></g></svg>