<?xml version="1.0" standalone="no"?>
<svg xmlns="http://www.w3.org/2000/svg" width="1120" height="517.5499992370605"><g transform="translate(70,20)"><g class="x axis" transform="translate(0,400)" fill="none" font-size="10" font-family="sans-serif" text-anchor="middle"><path class="domain" stroke="#000" d="M0.5,6V0.5H1000.5V6"/><g class="tick" opacity="1" transform="translate(261.904761904762,0)"><line stroke="#000" y2="6"/><text fill="#000" y="9" dy="-0.5em" style="text-anchor: end;" dx="-.8em" transform="rotate(-90)">no (n=12)</text></g><g class="tick" opacity="1" transform="translate(738.0952380952381,0)"><line stroke="#000" y2="6"/><text fill="#000" y="9" dy="-0.5em" style="text-anchor: end;" dx="-.8em" transform="rotate(-90)">yes (n=31)</text></g></g><g class="y axis" fill="none" font-size="10" font-family="sans-serif" text-anchor="end"><path class="domain" stroke="#000" d="M-6,400.5H0.5V0.5H-6"/><g class="tick" opacity="1" transform="translate(0,400.5)"><line stroke="#000" x2="-6"/><text fill="#000" x="-9" dy="0.32em">15</text></g><g class="tick" opacity="1" transform="translate(0,356.05555555555554)"><line stroke="#000" x2="-6"/><text fill="#000" x="-9" dy="0.32em">20</text></g><g class="tick" opacity="1" transform="translate(0,311.6111111111111)"><line stroke="#000" x2="-6"/><text fill="#000" x="-9" dy="0.32em">25</text></g><g class="tick" opacity="1" transform="translate(0,267.1666666666667)"><line stroke="#000" x2="-6"/><text fill="#000" x="-9" dy="0.32em">30</text></g><g class="tick" opacity="1" transform="translate(0,222.72222222222223)"><line stroke="#000" x2="-6"/><text fill="#000" x="-9" dy="0.32em">35</text></g><g class="tick" opacity="1" transform="translate(0,178.27777777777777)"><line stroke="#000" x2="-6"/><text fill="#000" x="-9" dy="0.32em">40</text></g><g class="tick" opacity="1" transform="translate(0,133.83333333333337)"><line stroke="#000" x2="-6"/><text fill="#000" x="-9" dy="0.32em">45</text></g><g class="tick" opacity="1" transform="translate(0,89.38888888888886)"><line stroke="#000" x2="-6"/><text fill="#000" x="-9" dy="0.32em">50</text></g><g class="tick" opacity="1" transform="translate(0,44.94444444444446)"><line stroke="#000" x2="-6"/><text fill="#000" x="-9" dy="0.32em">55</text></g><g class="tick" opacity="1" transform="translate(0,0.5)"><line stroke="#000" x2="-6"/><text fill="#000" x="-9" dy="0.32em">60</text></g></g><text class="x label" text-anchor="middle" style="font: 12px sans-serif;" transform="translate(500,487.54999923706055)">vegetation</text><text class="y label" text-anchor="middle" style="font: 12px sans-serif;" transform="translate(-50,200)rotate(-90)">observed_features</text><g class="outlier" transform="translate(261.904761904762,0)"/><line class="center" x1="261.904761904762" y1="364.44444444444446" x2="261.904761904762" y2="124.44444444444446" stroke-dasharray="2,2" stroke-width="1" stroke="black"/><line class="center" x1="738.0952380952381" y1="302.22222222222223" x2="738.0952380952381" y2="26.666666666666686" stroke-dasharray="2,2" stroke-width="1" stroke="black"/><g class="outlier" transform="translate(738.0952380952381,0)"/><rect class="box" x="47.619047619047706" y="224.44444444444446" width="428.57142857142856" height="88.88888888888886" fill="white" stroke-width="1" stroke="black"/><rect class="box" x="523.8095238095239" y="133.33333333333337" width="428.57142857142856" height="106.66666666666663" fill="white" stroke-width="1" stroke="black"/><line class="median" x1="47.619047619047706" y1="266.6666666666667" x2="476.19047619047626" y2="266.6666666666667" stroke-width="1" stroke="black"/><line class="median" x1="523.8095238095239" y1="195.55555555555557" x2="952.3809523809524" y2="195.55555555555557" stroke-width="1" stroke="black"/><g class="whisker" transform="translate(154.76190476190484,0)"><line class="median" x1="0" y1="364.44444444444446" x2="214.28571428571428" y2="364.44444444444446" stroke-width="1" stroke="black"/><line class="median" x1="0" y1="124.44444444444446" x2="214.28571428571428" y2="124.44444444444446" stroke-width="1" stroke="black"/></g><g class="whisker" transform="translate(630.952380952381,0)"><line class="median" x1="0" y1="302.22222222222223" x2="214.28571428571428" y2="302.22222222222223" stroke-width="1" stroke="black"/><line class="median" x1="0" y1="26.666666666666686" x2="214.28571428571428" y2="26.666666666666686" stroke-width="1" stroke="black"/></g></g></svg>