<svg class="marks" width="650.4446666666666" height="341.2223333333333" viewBox="0 0 650.4446666666666 341.2223333333333" version="1.1" xmlns="http://www.w3.org/2000/svg" xmlns:xlink="http://www.w3.org/1999/xlink"><g transform="translate(42,4)"><g class="mark-group role-frame root"><g transform="translate(0,0)"><path class="background" d="M0,0h604.4446666666666v302.2223333333333h-604.4446666666666Z" style="fill: none;"></path><g><g class="mark-group role-axis"><g transform="translate(0.5,302.7223333333333)"><path class="background" d="M0,0h0v0h0Z" style="pointer-events: none; fill: none;"></path><g><g class="mark-rule role-axis-tick" style="pointer-events: none;"><line transform="translate(48,0)" x2="0" y2="5" style="fill: none; stroke: #888; stroke-width: 1; opacity: 1;"></line><line transform="translate(117,0)" x2="0" y2="5" style="fill: none; stroke: #888; stroke-width: 1; opacity: 1;"></line><line transform="translate(186,0)" x2="0" y2="5" style="fill: none; stroke: #888; stroke-width: 1; opacity: 1;"></line><line transform="translate(255,0)" x2="0" y2="5" style="fill: none; stroke: #888; stroke-width: 1; opacity: 1;"></line><line transform="translate(323,0)" x2="0" y2="5" style="fill: none; stroke: #888; stroke-width: 1; opacity: 1;"></line><line transform="translate(392,0)" x2="0" y2="5" style="fill: none; stroke: #888; stroke-width: 1; opacity: 1;"></line><line transform="translate(461,0)" x2="0" y2="5" style="fill: none; stroke: #888; stroke-width: 1; opacity: 1;"></line><line transform="translate(530,0)" x2="0" y2="5" style="fill: none; stroke: #888; stroke-width: 1; opacity: 1;"></line><line transform="translate(599,0)" x2="0" y2="5" style="fill: none; stroke: #888; stroke-width: 1; opacity: 1;"></line></g><g class="mark-text role-axis-label" style="pointer-events: none;"><text text-anchor="middle" transform="translate(47.82770169131232,15)" style="font-family: sans-serif; font-size: 10px; fill: #000; opacity: 1;">-1.5</text><text text-anchor="middle" transform="translate(116.73565927117448,15)" style="font-family: sans-serif; font-size: 10px; fill: #000; opacity: 1;">-1.0</text><text text-anchor="middle" transform="translate(185.64361685103665,15)" style="font-family: sans-serif; font-size: 10px; fill: #000; opacity: 1;">-0.5</text><text text-anchor="middle" transform="translate(254.55157443089882,15)" style="font-family: sans-serif; font-size: 10px; fill: #000; opacity: 1;">0.0</text><text text-anchor="middle" transform="translate(323.459532010761,15)" style="font-family: sans-serif; font-size: 10px; fill: #000; opacity: 1;">0.5</text><text text-anchor="middle" transform="translate(392.36748959062317,15)" style="font-family: sans-serif; font-size: 10px; fill: #000; opacity: 1;">1.0</text><text text-anchor="middle" transform="translate(461.27544717048534,15)" style="font-family: sans-serif; font-size: 10px; fill: #000; opacity: 1;">1.5</text><text text-anchor="middle" transform="translate(530.1834047503474,15)" style="font-family: sans-serif; font-size: 10px; fill: #000; opacity: 1;">2.0</text><text text-anchor="middle" transform="translate(599.0913623302097,15)" style="font-family: sans-serif; font-size: 10px; fill: #000; opacity: 1;">2.5</text></g><g class="mark-rule role-axis-domain" style="pointer-events: none;"><line transform="translate(0,0)" x2="604.4446666666666" y2="0" style="fill: none; stroke: #888; stroke-width: 1; opacity: 1;"></line></g><g class="mark-text role-axis-title" style="pointer-events: none;"><text text-anchor="middle" transform="translate(302.2223333333333,31)" style="font-family: sans-serif; font-size: 11px; font-weight: bold; fill: #000; opacity: 1;">clr</text></g></g></g></g><g class="mark-group role-axis"><g transform="translate(0.5,0.5)"><path class="background" d="M0,0h0v0h0Z" style="pointer-events: none; fill: none;"></path><g><g class="mark-rule role-axis-tick" style="pointer-events: none;"><line transform="translate(0,302)" x2="-5" y2="0" style="fill: none; stroke: #888; stroke-width: 1; opacity: 1;"></line><line transform="translate(0,261)" x2="-5" y2="0" style="fill: none; stroke: #888; stroke-width: 1; opacity: 1;"></line><line transform="translate(0,220)" x2="-5" y2="0" style="fill: none; stroke: #888; stroke-width: 1; opacity: 1;"></line><line transform="translate(0,179)" x2="-5" y2="0" style="fill: none; stroke: #888; stroke-width: 1; opacity: 1;"></line><line transform="translate(0,138)" x2="-5" y2="0" style="fill: none; stroke: #888; stroke-width: 1; opacity: 1;"></line><line transform="translate(0,97)" x2="-5" y2="0" style="fill: none; stroke: #888; stroke-width: 1; opacity: 1;"></line><line transform="translate(0,56)" x2="-5" y2="0" style="fill: none; stroke: #888; stroke-width: 1; opacity: 1;"></line><line transform="translate(0,14)" x2="-5" y2="0" style="fill: none; stroke: #888; stroke-width: 1; opacity: 1;"></line></g><g class="mark-text role-axis-label" style="pointer-events: none;"><text text-anchor="end" transform="translate(-7,305.2223333333333)" style="font-family: sans-serif; font-size: 10px; fill: #000; opacity: 1;">0</text><text text-anchor="end" transform="translate(-7,264.1036485260771)" style="font-family: sans-serif; font-size: 10px; fill: #000; opacity: 1;">20</text><text text-anchor="end" transform="translate(-7,222.98496371882084)" style="font-family: sans-serif; font-size: 10px; fill: #000; opacity: 1;">40</text><text text-anchor="end" transform="translate(-7,181.86627891156462)" style="font-family: sans-serif; font-size: 10px; fill: #000; opacity: 1;">60</text><text text-anchor="end" transform="translate(-7,140.74759410430838)" style="font-family: sans-serif; font-size: 10px; fill: #000; opacity: 1;">80</text><text text-anchor="end" transform="translate(-7,99.62890929705216)" style="font-family: sans-serif; font-size: 10px; fill: #000; opacity: 1;">100</text><text text-anchor="end" transform="translate(-7,58.51022448979592)" style="font-family: sans-serif; font-size: 10px; fill: #000; opacity: 1;">120</text><text text-anchor="end" transform="translate(-7,17.3915396825397)" style="font-family: sans-serif; font-size: 10px; fill: #000; opacity: 1;">140</text></g><g class="mark-rule role-axis-domain" style="pointer-events: none;"><line transform="translate(0,302.2223333333333)" x2="0" y2="-302.2223333333333" style="fill: none; stroke: #888; stroke-width: 1; opacity: 1;"></line></g><g class="mark-text role-axis-title" style="pointer-events: none;"><text text-anchor="middle" transform="translate(-28.700000762939453,151.11116666666666) rotate(-90) translate(0,-2)" style="font-family: sans-serif; font-size: 11px; font-weight: bold; fill: #000; opacity: 1;">W</text></g></g></g></g><g class="mark-symbol role-mark"><path transform="translate(452.1589217424243,205.59342403628116)" d="M4,0A4,4,0,1,1,-4,0A4,4,0,1,1,4,0" style="fill: black; opacity: 0.3;"></path><path transform="translate(241.8429392924294,293.99859637188206)" d="M4,0A4,4,0,1,1,-4,0A4,4,0,1,1,4,0" style="fill: black; opacity: 0.3;"></path><path transform="translate(251.91528294028288,293.99859637188206)" d="M4,0A4,4,0,1,1,-4,0A4,4,0,1,1,4,0" style="fill: black; opacity: 0.3;"></path><path transform="translate(260.3570998363249,298.1104648526077)" d="M4,0A4,4,0,1,1,-4,0A4,4,0,1,1,4,0" style="fill: black; opacity: 0.3;"></path><path transform="translate(276.41090377342124,302.2223333333333)" d="M4,0A4,4,0,1,1,-4,0A4,4,0,1,1,4,0" style="fill: black; opacity: 0.3;"></path><path transform="translate(241.8429392924294,293.99859637188206)" d="M4,0A4,4,0,1,1,-4,0A4,4,0,1,1,4,0" style="fill: black; opacity: 0.3;"></path><path transform="translate(257.10743206297167,293.99859637188206)" d="M4,0A4,4,0,1,1,-4,0A4,4,0,1,1,4,0" style="fill: black; opacity: 0.3;"></path><path transform="translate(218.61749864363338,291.9426621315193)" d="M4,0A4,4,0,1,1,-4,0A4,4,0,1,1,4,0" style="fill: black; opacity: 0.3;"></path><path transform="translate(203.53433342848842,293.99859637188206)" d="M4,0A4,4,0,1,1,-4,0A4,4,0,1,1,4,0" style="fill: black; opacity: 0.3;"></path><path transform="translate(220.23606352449434,293.99859637188206)" d="M4,0A4,4,0,1,1,-4,0A4,4,0,1,1,4,0" style="fill: black; opacity: 0.3;"></path><path transform="translate(227.3504783202438,291.9426621315193)" d="M4,0A4,4,0,1,1,-4,0A4,4,0,1,1,4,0" style="fill: black; opacity: 0.3;"></path><path transform="translate(270.13962238336046,296.0545306122449)" d="M4,0A4,4,0,1,1,-4,0A4,4,0,1,1,4,0" style="fill: black; opacity: 0.3;"></path><path transform="translate(431.991210299529,279.6070566893424)" d="M4,0A4,4,0,1,1,-4,0A4,4,0,1,1,4,0" style="fill: black; opacity: 0.3;"></path><path transform="translate(310.2953639559117,296.0545306122449)" d="M4,0A4,4,0,1,1,-4,0A4,4,0,1,1,4,0" style="fill: black; opacity: 0.3;"></path><path transform="translate(277.6791886494752,293.99859637188206)" d="M4,0A4,4,0,1,1,-4,0A4,4,0,1,1,4,0" style="fill: black; opacity: 0.3;"></path><path transform="translate(246.55766556661013,293.99859637188206)" d="M4,0A4,4,0,1,1,-4,0A4,4,0,1,1,4,0" style="fill: black; opacity: 0.3;"></path><path transform="translate(211.1491858938943,296.0545306122449)" d="M4,0A4,4,0,1,1,-4,0A4,4,0,1,1,4,0" style="fill: black; opacity: 0.3;"></path><path transform="translate(227.5830907154962,298.1104648526077)" d="M4,0A4,4,0,1,1,-4,0A4,4,0,1,1,4,0" style="fill: black; opacity: 0.3;"></path><path transform="translate(433.21588212786673,289.88672789115645)" d="M4,0A4,4,0,1,1,-4,0A4,4,0,1,1,4,0" style="fill: black; opacity: 0.3;"></path><path transform="translate(250.73054131007996,296.0545306122449)" d="M4,0A4,4,0,1,1,-4,0A4,4,0,1,1,4,0" style="fill: black; opacity: 0.3;"></path><path transform="translate(105.32630636978672,283.718925170068)" d="M4,0A4,4,0,1,1,-4,0A4,4,0,1,1,4,0" style="fill: black; opacity: 0.3;"></path><path transform="translate(395.0310024239242,283.718925170068)" d="M4,0A4,4,0,1,1,-4,0A4,4,0,1,1,4,0" style="fill: black; opacity: 0.3;"></path><path transform="translate(243.05088378940127,293.99859637188206)" d="M4,0A4,4,0,1,1,-4,0A4,4,0,1,1,4,0" style="fill: black; opacity: 0.3;"></path><path transform="translate(2.3702136790744386,4.1118684807256045)" d="M4,0A4,4,0,1,1,-4,0A4,4,0,1,1,4,0" style="fill: black; opacity: 0.3;"></path><path transform="translate(212.41002709285183,298.1104648526077)" d="M4,0A4,4,0,1,1,-4,0A4,4,0,1,1,4,0" style="fill: black; opacity: 0.3;"></path><path transform="translate(61.60433971034521,296.0545306122449)" d="M4,0A4,4,0,1,1,-4,0A4,4,0,1,1,4,0" style="fill: black; opacity: 0.3;"></path><path transform="translate(391.5336286081633,289.88672789115645)" d="M4,0A4,4,0,1,1,-4,0A4,4,0,1,1,4,0" style="fill: black; opacity: 0.3;"></path><path transform="translate(112.14798870880445,275.49518820861675)" d="M4,0A4,4,0,1,1,-4,0A4,4,0,1,1,4,0" style="fill: black; opacity: 0.3;"></path><path transform="translate(211.4129774814528,293.99859637188206)" d="M4,0A4,4,0,1,1,-4,0A4,4,0,1,1,4,0" style="fill: black; opacity: 0.3;"></path><path transform="translate(134.31639501396108,287.8307936507936)" d="M4,0A4,4,0,1,1,-4,0A4,4,0,1,1,4,0" style="fill: black; opacity: 0.3;"></path><path transform="translate(209.1275468081812,293.99859637188206)" d="M4,0A4,4,0,1,1,-4,0A4,4,0,1,1,4,0" style="fill: black; opacity: 0.3;"></path><path transform="translate(247.84848887220218,293.99859637188206)" d="M4,0A4,4,0,1,1,-4,0A4,4,0,1,1,4,0" style="fill: black; opacity: 0.3;"></path><path transform="translate(277.4175876096626,291.9426621315193)" d="M4,0A4,4,0,1,1,-4,0A4,4,0,1,1,4,0" style="fill: black; opacity: 0.3;"></path><path transform="translate(249.49200489982758,293.99859637188206)" d="M4,0A4,4,0,1,1,-4,0A4,4,0,1,1,4,0" style="fill: black; opacity: 0.3;"></path><path transform="translate(243.2067989752468,293.99859637188206)" d="M4,0A4,4,0,1,1,-4,0A4,4,0,1,1,4,0" style="fill: black; opacity: 0.3;"></path><path transform="translate(276.45259570141775,293.99859637188206)" d="M4,0A4,4,0,1,1,-4,0A4,4,0,1,1,4,0" style="fill: black; opacity: 0.3;"></path><path transform="translate(400.36321159436915,289.88672789115645)" d="M4,0A4,4,0,1,1,-4,0A4,4,0,1,1,4,0" style="fill: black; opacity: 0.3;"></path><path transform="translate(261.9988704490754,293.99859637188206)" d="M4,0A4,4,0,1,1,-4,0A4,4,0,1,1,4,0" style="fill: black; opacity: 0.3;"></path><path transform="translate(260.14977388578916,298.1104648526077)" d="M4,0A4,4,0,1,1,-4,0A4,4,0,1,1,4,0" style="fill: black; opacity: 0.3;"></path><path transform="translate(0,211.76122675736963)" d="M4,0A4,4,0,1,1,-4,0A4,4,0,1,1,4,0" style="fill: black; opacity: 0.3;"></path><path transform="translate(218.64287082472555,300.1663990929705)" d="M4,0A4,4,0,1,1,-4,0A4,4,0,1,1,4,0" style="fill: black; opacity: 0.3;"></path><path transform="translate(281.613063528907,302.2223333333333)" d="M4,0A4,4,0,1,1,-4,0A4,4,0,1,1,4,0" style="fill: black; opacity: 0.3;"></path><path transform="translate(342.76262680061126,300.1663990929705)" d="M4,0A4,4,0,1,1,-4,0A4,4,0,1,1,4,0" style="fill: black; opacity: 0.3;"></path><path transform="translate(204.29856268570333,293.99859637188206)" d="M4,0A4,4,0,1,1,-4,0A4,4,0,1,1,4,0" style="fill: black; opacity: 0.3;"></path><path transform="translate(232.1247945766187,298.1104648526077)" d="M4,0A4,4,0,1,1,-4,0A4,4,0,1,1,4,0" style="fill: black; opacity: 0.3;"></path><path transform="translate(413.88033149392453,298.1104648526077)" d="M4,0A4,4,0,1,1,-4,0A4,4,0,1,1,4,0" style="fill: black; opacity: 0.3;"></path><path transform="translate(62.802517833322995,279.6070566893424)" d="M4,0A4,4,0,1,1,-4,0A4,4,0,1,1,4,0" style="fill: black; opacity: 0.3;"></path><path transform="translate(210.33591741043566,298.1104648526077)" d="M4,0A4,4,0,1,1,-4,0A4,4,0,1,1,4,0" style="fill: black; opacity: 0.3;"></path><path transform="translate(348.80690376357694,300.1663990929705)" d="M4,0A4,4,0,1,1,-4,0A4,4,0,1,1,4,0" style="fill: black; opacity: 0.3;"></path><path transform="translate(436.53249185929434,285.77485941043085)" d="M4,0A4,4,0,1,1,-4,0A4,4,0,1,1,4,0" style="fill: black; opacity: 0.3;"></path><path transform="translate(274.76695600516797,293.99859637188206)" d="M4,0A4,4,0,1,1,-4,0A4,4,0,1,1,4,0" style="fill: black; opacity: 0.3;"></path><path transform="translate(293.6748959224862,302.2223333333333)" d="M4,0A4,4,0,1,1,-4,0A4,4,0,1,1,4,0" style="fill: black; opacity: 0.3;"></path><path transform="translate(380.3413503399263,302.2223333333333)" d="M4,0A4,4,0,1,1,-4,0A4,4,0,1,1,4,0" style="fill: black; opacity: 0.3;"></path><path transform="translate(108.5642333887496,298.1104648526077)" d="M4,0A4,4,0,1,1,-4,0A4,4,0,1,1,4,0" style="fill: black; opacity: 0.3;"></path><path transform="translate(444.9237939511517,283.718925170068)" d="M4,0A4,4,0,1,1,-4,0A4,4,0,1,1,4,0" style="fill: black; opacity: 0.3;"></path><path transform="translate(289.4365886073369,296.0545306122449)" d="M4,0A4,4,0,1,1,-4,0A4,4,0,1,1,4,0" style="fill: black; opacity: 0.3;"></path><path transform="translate(227.3504783202438,293.99859637188206)" d="M4,0A4,4,0,1,1,-4,0A4,4,0,1,1,4,0" style="fill: black; opacity: 0.3;"></path><path transform="translate(224.08846693711118,298.1104648526077)" d="M4,0A4,4,0,1,1,-4,0A4,4,0,1,1,4,0" style="fill: black; opacity: 0.3;"></path><path transform="translate(214.76860295785772,293.99859637188206)" d="M4,0A4,4,0,1,1,-4,0A4,4,0,1,1,4,0" style="fill: black; opacity: 0.3;"></path><path transform="translate(209.32628442408497,293.99859637188206)" d="M4,0A4,4,0,1,1,-4,0A4,4,0,1,1,4,0" style="fill: black; opacity: 0.3;"></path><path transform="translate(419.5992231666254,219.98496371882084)" d="M4,0A4,4,0,1,1,-4,0A4,4,0,1,1,4,0" style="fill: black; opacity: 0.3;"></path><path transform="translate(214.35400616246665,296.0545306122449)" d="M4,0A4,4,0,1,1,-4,0A4,4,0,1,1,4,0" style="fill: black; opacity: 0.3;"></path><path transform="translate(240.93844715312474,293.99859637188206)" d="M4,0A4,4,0,1,1,-4,0A4,4,0,1,1,4,0" style="fill: black; opacity: 0.3;"></path><path transform="translate(245.3915723874928,293.99859637188206)" d="M4,0A4,4,0,1,1,-4,0A4,4,0,1,1,4,0" style="fill: black; opacity: 0.3;"></path><path transform="translate(252.30161410657024,293.99859637188206)" d="M4,0A4,4,0,1,1,-4,0A4,4,0,1,1,4,0" style="fill: black; opacity: 0.3;"></path><path transform="translate(239.77235397400744,293.99859637188206)" d="M4,0A4,4,0,1,1,-4,0A4,4,0,1,1,4,0" style="fill: black; opacity: 0.3;"></path><path transform="translate(242.58196318075014,293.99859637188206)" d="M4,0A4,4,0,1,1,-4,0A4,4,0,1,1,4,0" style="fill: black; opacity: 0.3;"></path><path transform="translate(244.6525484991721,293.99859637188206)" d="M4,0A4,4,0,1,1,-4,0A4,4,0,1,1,4,0" style="fill: black; opacity: 0.3;"></path><path transform="translate(244.6855564092081,293.99859637188206)" d="M4,0A4,4,0,1,1,-4,0A4,4,0,1,1,4,0" style="fill: black; opacity: 0.3;"></path><path transform="translate(280.8447879096536,296.0545306122449)" d="M4,0A4,4,0,1,1,-4,0A4,4,0,1,1,4,0" style="fill: black; opacity: 0.3;"></path><path transform="translate(289.0654342438566,289.88672789115645)" d="M4,0A4,4,0,1,1,-4,0A4,4,0,1,1,4,0" style="fill: black; opacity: 0.3;"></path><path transform="translate(220.23606352449434,291.9426621315193)" d="M4,0A4,4,0,1,1,-4,0A4,4,0,1,1,4,0" style="fill: black; opacity: 0.3;"></path><path transform="translate(252.65430682860358,293.99859637188206)" d="M4,0A4,4,0,1,1,-4,0A4,4,0,1,1,4,0" style="fill: black; opacity: 0.3;"></path><path transform="translate(251.48821364948628,293.99859637188206)" d="M4,0A4,4,0,1,1,-4,0A4,4,0,1,1,4,0" style="fill: black; opacity: 0.3;"></path><path transform="translate(213.8833805191583,298.1104648526077)" d="M4,0A4,4,0,1,1,-4,0A4,4,0,1,1,4,0" style="fill: black; opacity: 0.3;"></path><path transform="translate(256.9544550676957,293.99859637188206)" d="M4,0A4,4,0,1,1,-4,0A4,4,0,1,1,4,0" style="fill: black; opacity: 0.3;"></path><path transform="translate(224.11459225484884,293.99859637188206)" d="M4,0A4,4,0,1,1,-4,0A4,4,0,1,1,4,0" style="fill: black; opacity: 0.3;"></path><path transform="translate(221.20462937065759,293.99859637188206)" d="M4,0A4,4,0,1,1,-4,0A4,4,0,1,1,4,0" style="fill: black; opacity: 0.3;"></path><path transform="translate(268.7091036446265,289.88672789115645)" d="M4,0A4,4,0,1,1,-4,0A4,4,0,1,1,4,0" style="fill: black; opacity: 0.3;"></path><path transform="translate(246.80340197063498,293.99859637188206)" d="M4,0A4,4,0,1,1,-4,0A4,4,0,1,1,4,0" style="fill: black; opacity: 0.3;"></path><path transform="translate(157.1525574566874,281.6629909297052)" d="M4,0A4,4,0,1,1,-4,0A4,4,0,1,1,4,0" style="fill: black; opacity: 0.3;"></path><path transform="translate(116.55764991265937,162.41880498866212)" d="M4,0A4,4,0,1,1,-4,0A4,4,0,1,1,4,0" style="fill: black; opacity: 0.3;"></path><path transform="translate(214.76860295785772,296.0545306122449)" d="M4,0A4,4,0,1,1,-4,0A4,4,0,1,1,4,0" style="fill: black; opacity: 0.3;"></path><path transform="translate(298.0972362324434,300.1663990929705)" d="M4,0A4,4,0,1,1,-4,0A4,4,0,1,1,4,0" style="fill: black; opacity: 0.3;"></path><path transform="translate(203.90638776046612,293.99859637188206)" d="M4,0A4,4,0,1,1,-4,0A4,4,0,1,1,4,0" style="fill: black; opacity: 0.3;"></path><path transform="translate(251.91528294028288,293.99859637188206)" d="M4,0A4,4,0,1,1,-4,0A4,4,0,1,1,4,0" style="fill: black; opacity: 0.3;"></path><path transform="translate(369.23380373151673,293.99859637188206)" d="M4,0A4,4,0,1,1,-4,0A4,4,0,1,1,4,0" style="fill: black; opacity: 0.3;"></path><path transform="translate(215.65125736097124,293.99859637188206)" d="M4,0A4,4,0,1,1,-4,0A4,4,0,1,1,4,0" style="fill: black; opacity: 0.3;"></path><path transform="translate(130.10642171401656,296.0545306122449)" d="M4,0A4,4,0,1,1,-4,0A4,4,0,1,1,4,0" style="fill: black; opacity: 0.3;"></path><path transform="translate(254.06613641174573,291.9426621315193)" d="M4,0A4,4,0,1,1,-4,0A4,4,0,1,1,4,0" style="fill: black; opacity: 0.3;"></path><path transform="translate(276.603358559534,298.1104648526077)" d="M4,0A4,4,0,1,1,-4,0A4,4,0,1,1,4,0" style="fill: black; opacity: 0.3;"></path><path transform="translate(297.5953802924504,300.1663990929705)" d="M4,0A4,4,0,1,1,-4,0A4,4,0,1,1,4,0" style="fill: black; opacity: 0.3;"></path><path transform="translate(241.8429392924294,293.99859637188206)" d="M4,0A4,4,0,1,1,-4,0A4,4,0,1,1,4,0" style="fill: black; opacity: 0.3;"></path><path transform="translate(247.4621577059148,291.9426621315193)" d="M4,0A4,4,0,1,1,-4,0A4,4,0,1,1,4,0" style="fill: black; opacity: 0.3;"></path><path transform="translate(219.38172790084835,293.99859637188206)" d="M4,0A4,4,0,1,1,-4,0A4,4,0,1,1,4,0" style="fill: black; opacity: 0.3;"></path><path transform="translate(240.93844715312474,293.99859637188206)" d="M4,0A4,4,0,1,1,-4,0A4,4,0,1,1,4,0" style="fill: black; opacity: 0.3;"></path><path transform="translate(288.5179983893902,296.0545306122449)" d="M4,0A4,4,0,1,1,-4,0A4,4,0,1,1,4,0" style="fill: black; opacity: 0.3;"></path><path transform="translate(251.41244678426992,291.9426621315193)" d="M4,0A4,4,0,1,1,-4,0A4,4,0,1,1,4,0" style="fill: black; opacity: 0.3;"></path><path transform="translate(285.6777932942712,302.2223333333333)" d="M4,0A4,4,0,1,1,-4,0A4,4,0,1,1,4,0" style="fill: black; opacity: 0.3;"></path><path transform="translate(70.14815297265987,277.5511224489796)" d="M4,0A4,4,0,1,1,-4,0A4,4,0,1,1,4,0" style="fill: black; opacity: 0.3;"></path><path transform="translate(286.4233798257889,302.2223333333333)" d="M4,0A4,4,0,1,1,-4,0A4,4,0,1,1,4,0" style="fill: black; opacity: 0.3;"></path><path transform="translate(208.74569710777496,293.99859637188206)" d="M4,0A4,4,0,1,1,-4,0A4,4,0,1,1,4,0" style="fill: black; opacity: 0.3;"></path><path transform="translate(221.20462937065759,293.99859637188206)" d="M4,0A4,4,0,1,1,-4,0A4,4,0,1,1,4,0" style="fill: black; opacity: 0.3;"></path><path transform="translate(170.97088511352018,302.2223333333333)" d="M4,0A4,4,0,1,1,-4,0A4,4,0,1,1,4,0" style="fill: black; opacity: 0.3;"></path><path transform="translate(225.263785262876,291.9426621315193)" d="M4,0A4,4,0,1,1,-4,0A4,4,0,1,1,4,0" style="fill: black; opacity: 0.3;"></path><path transform="translate(208.20815721288042,293.99859637188206)" d="M4,0A4,4,0,1,1,-4,0A4,4,0,1,1,4,0" style="fill: black; opacity: 0.3;"></path><path transform="translate(300.2283746991096,300.1663990929705)" d="M4,0A4,4,0,1,1,-4,0A4,4,0,1,1,4,0" style="fill: black; opacity: 0.3;"></path><path transform="translate(543.1580871670401,12.33560544217687)" d="M4,0A4,4,0,1,1,-4,0A4,4,0,1,1,4,0" style="fill: black; opacity: 0.3;"></path><path transform="translate(76.64399497556064,74.01363265306125)" d="M4,0A4,4,0,1,1,-4,0A4,4,0,1,1,4,0" style="fill: black; opacity: 0.3;"></path><path transform="translate(191.64758561100334,296.0545306122449)" d="M4,0A4,4,0,1,1,-4,0A4,4,0,1,1,4,0" style="fill: black; opacity: 0.3;"></path><path transform="translate(304.18327868580815,293.99859637188206)" d="M4,0A4,4,0,1,1,-4,0A4,4,0,1,1,4,0" style="fill: black; opacity: 0.3;"></path><path transform="translate(189.94051010174064,293.99859637188206)" d="M4,0A4,4,0,1,1,-4,0A4,4,0,1,1,4,0" style="fill: black; opacity: 0.3;"></path><path transform="translate(243.20679897524678,293.99859637188206)" d="M4,0A4,4,0,1,1,-4,0A4,4,0,1,1,4,0" style="fill: black; opacity: 0.3;"></path><path transform="translate(258.7598299245123,296.0545306122449)" d="M4,0A4,4,0,1,1,-4,0A4,4,0,1,1,4,0" style="fill: black; opacity: 0.3;"></path><path transform="translate(258.5253485769998,296.0545306122449)" d="M4,0A4,4,0,1,1,-4,0A4,4,0,1,1,4,0" style="fill: black; opacity: 0.3;"></path><path transform="translate(217.92616918817177,291.9426621315193)" d="M4,0A4,4,0,1,1,-4,0A4,4,0,1,1,4,0" style="fill: black; opacity: 0.3;"></path><path transform="translate(195.6604492257255,296.0545306122449)" d="M4,0A4,4,0,1,1,-4,0A4,4,0,1,1,4,0" style="fill: black; opacity: 0.3;"></path><path transform="translate(241.8429392924294,293.99859637188206)" d="M4,0A4,4,0,1,1,-4,0A4,4,0,1,1,4,0" style="fill: black; opacity: 0.3;"></path><path transform="translate(240.85248124808754,298.1104648526077)" d="M4,0A4,4,0,1,1,-4,0A4,4,0,1,1,4,0" style="fill: black; opacity: 0.3;"></path><path transform="translate(250.74918976116555,293.99859637188206)" d="M4,0A4,4,0,1,1,-4,0A4,4,0,1,1,4,0" style="fill: black; opacity: 0.3;"></path><path transform="translate(349.2025775082369,285.77485941043085)" d="M4,0A4,4,0,1,1,-4,0A4,4,0,1,1,4,0" style="fill: black; opacity: 0.3;"></path><path transform="translate(251.63562659547486,293.99859637188206)" d="M4,0A4,4,0,1,1,-4,0A4,4,0,1,1,4,0" style="fill: black; opacity: 0.3;"></path><path transform="translate(259.3757838850937,289.88672789115645)" d="M4,0A4,4,0,1,1,-4,0A4,4,0,1,1,4,0" style="fill: black; opacity: 0.3;"></path><path transform="translate(239.77235397400742,293.99859637188206)" d="M4,0A4,4,0,1,1,-4,0A4,4,0,1,1,4,0" style="fill: black; opacity: 0.3;"></path><path transform="translate(241.8429392924294,293.99859637188206)" d="M4,0A4,4,0,1,1,-4,0A4,4,0,1,1,4,0" style="fill: black; opacity: 0.3;"></path><path transform="translate(240.29151387314167,296.0545306122449)" d="M4,0A4,4,0,1,1,-4,0A4,4,0,1,1,4,0" style="fill: black; opacity: 0.3;"></path><path transform="translate(246.29606452679752,291.9426621315193)" d="M4,0A4,4,0,1,1,-4,0A4,4,0,1,1,4,0" style="fill: black; opacity: 0.3;"></path><path transform="translate(256.9349205273843,293.99859637188206)" d="M4,0A4,4,0,1,1,-4,0A4,4,0,1,1,4,0" style="fill: black; opacity: 0.3;"></path><path transform="translate(277.20945163844226,298.1104648526077)" d="M4,0A4,4,0,1,1,-4,0A4,4,0,1,1,4,0" style="fill: black; opacity: 0.3;"></path><path transform="translate(347.88514111994016,285.77485941043085)" d="M4,0A4,4,0,1,1,-4,0A4,4,0,1,1,4,0" style="fill: black; opacity: 0.3;"></path><path transform="translate(254.29782285622895,293.99859637188206)" d="M4,0A4,4,0,1,1,-4,0A4,4,0,1,1,4,0" style="fill: black; opacity: 0.3;"></path><path transform="translate(248.02867005864812,293.99859637188206)" d="M4,0A4,4,0,1,1,-4,0A4,4,0,1,1,4,0" style="fill: black; opacity: 0.3;"></path><path transform="translate(124.17889165837,285.77485941043085)" d="M4,0A4,4,0,1,1,-4,0A4,4,0,1,1,4,0" style="fill: black; opacity: 0.3;"></path><path transform="translate(298.0572301161935,296.0545306122449)" d="M4,0A4,4,0,1,1,-4,0A4,4,0,1,1,4,0" style="fill: black; opacity: 0.3;"></path><path transform="translate(267.8789880740851,293.99859637188206)" d="M4,0A4,4,0,1,1,-4,0A4,4,0,1,1,4,0" style="fill: black; opacity: 0.3;"></path><path transform="translate(285.92079179865385,289.88672789115645)" d="M4,0A4,4,0,1,1,-4,0A4,4,0,1,1,4,0" style="fill: black; opacity: 0.3;"></path><path transform="translate(258.1010137065016,293.99859637188206)" d="M4,0A4,4,0,1,1,-4,0A4,4,0,1,1,4,0" style="fill: black; opacity: 0.3;"></path><path transform="translate(448.2192459893345,281.6629909297052)" d="M4,0A4,4,0,1,1,-4,0A4,4,0,1,1,4,0" style="fill: black; opacity: 0.3;"></path><path transform="translate(210.65803728525097,298.1104648526077)" d="M4,0A4,4,0,1,1,-4,0A4,4,0,1,1,4,0" style="fill: black; opacity: 0.3;"></path><path transform="translate(241.8429392924294,293.99859637188206)" d="M4,0A4,4,0,1,1,-4,0A4,4,0,1,1,4,0" style="fill: black; opacity: 0.3;"></path><path transform="translate(457.93432761341217,281.6629909297052)" d="M4,0A4,4,0,1,1,-4,0A4,4,0,1,1,4,0" style="fill: black; opacity: 0.3;"></path><path transform="translate(262.31207244136846,293.99859637188206)" d="M4,0A4,4,0,1,1,-4,0A4,4,0,1,1,4,0" style="fill: black; opacity: 0.3;"></path><path transform="translate(252.65430682860358,293.99859637188206)" d="M4,0A4,4,0,1,1,-4,0A4,4,0,1,1,4,0" style="fill: black; opacity: 0.3;"></path><path transform="translate(265.2986817173662,302.2223333333333)" d="M4,0A4,4,0,1,1,-4,0A4,4,0,1,1,4,0" style="fill: black; opacity: 0.3;"></path><path transform="translate(71.55947394109225,285.77485941043085)" d="M4,0A4,4,0,1,1,-4,0A4,4,0,1,1,4,0" style="fill: black; opacity: 0.3;"></path><path transform="translate(247.03508841511822,293.99859637188206)" d="M4,0A4,4,0,1,1,-4,0A4,4,0,1,1,4,0" style="fill: black; opacity: 0.3;"></path><path transform="translate(241.8429392924294,293.99859637188206)" d="M4,0A4,4,0,1,1,-4,0A4,4,0,1,1,4,0" style="fill: black; opacity: 0.3;"></path><path transform="translate(285.3769206093907,300.1663990929705)" d="M4,0A4,4,0,1,1,-4,0A4,4,0,1,1,4,0" style="fill: black; opacity: 0.3;"></path><path transform="translate(345.1608273263371,296.0545306122449)" d="M4,0A4,4,0,1,1,-4,0A4,4,0,1,1,4,0" style="fill: black; opacity: 0.3;"></path><path transform="translate(164.5859424674351,291.9426621315193)" d="M4,0A4,4,0,1,1,-4,0A4,4,0,1,1,4,0" style="fill: black; opacity: 0.3;"></path><path transform="translate(217.92616918817177,291.9426621315193)" d="M4,0A4,4,0,1,1,-4,0A4,4,0,1,1,4,0" style="fill: black; opacity: 0.3;"></path><path transform="translate(245.71601824072488,293.99859637188206)" d="M4,0A4,4,0,1,1,-4,0A4,4,0,1,1,4,0" style="fill: black; opacity: 0.3;"></path><path transform="translate(273.8887228986998,293.99859637188206)" d="M4,0A4,4,0,1,1,-4,0A4,4,0,1,1,4,0" style="fill: black; opacity: 0.3;"></path><path transform="translate(254.29782285622895,293.99859637188206)" d="M4,0A4,4,0,1,1,-4,0A4,4,0,1,1,4,0" style="fill: black; opacity: 0.3;"></path><path transform="translate(245.03887966545946,293.99859637188206)" d="M4,0A4,4,0,1,1,-4,0A4,4,0,1,1,4,0" style="fill: black; opacity: 0.3;"></path><path transform="translate(281.1472720949686,293.99859637188206)" d="M4,0A4,4,0,1,1,-4,0A4,4,0,1,1,4,0" style="fill: black; opacity: 0.3;"></path><path transform="translate(450.03847089161644,291.9426621315193)" d="M4,0A4,4,0,1,1,-4,0A4,4,0,1,1,4,0" style="fill: black; opacity: 0.3;"></path><path transform="translate(248.36664984521943,293.99859637188206)" d="M4,0A4,4,0,1,1,-4,0A4,4,0,1,1,4,0" style="fill: black; opacity: 0.3;"></path><path transform="translate(201.9157685476274,291.9426621315193)" d="M4,0A4,4,0,1,1,-4,0A4,4,0,1,1,4,0" style="fill: black; opacity: 0.3;"></path><path transform="translate(219.38172790084835,293.99859637188206)" d="M4,0A4,4,0,1,1,-4,0A4,4,0,1,1,4,0" style="fill: black; opacity: 0.3;"></path><path transform="translate(244.6525484991721,293.99859637188206)" d="M4,0A4,4,0,1,1,-4,0A4,4,0,1,1,4,0" style="fill: black; opacity: 0.3;"></path><path transform="translate(354.15135129356787,296.0545306122449)" d="M4,0A4,4,0,1,1,-4,0A4,4,0,1,1,4,0" style="fill: black; opacity: 0.3;"></path><path transform="translate(246.01640818198948,293.99859637188206)" d="M4,0A4,4,0,1,1,-4,0A4,4,0,1,1,4,0" style="fill: black; opacity: 0.3;"></path><path transform="translate(268.2887446181219,293.99859637188206)" d="M4,0A4,4,0,1,1,-4,0A4,4,0,1,1,4,0" style="fill: black; opacity: 0.3;"></path><path transform="translate(244.22547920837553,293.99859637188206)" d="M4,0A4,4,0,1,1,-4,0A4,4,0,1,1,4,0" style="fill: black; opacity: 0.3;"></path><path transform="translate(604.4446666666666,0)" d="M4,0A4,4,0,1,1,-4,0A4,4,0,1,1,4,0" style="fill: black; opacity: 0.3;"></path><path transform="translate(241.8429392924294,293.99859637188206)" d="M4,0A4,4,0,1,1,-4,0A4,4,0,1,1,4,0" style="fill: black; opacity: 0.3;"></path><path transform="translate(249.1056737335402,291.9426621315193)" d="M4,0A4,4,0,1,1,-4,0A4,4,0,1,1,4,0" style="fill: black; opacity: 0.3;"></path><path transform="translate(235.20470943645836,293.99859637188206)" d="M4,0A4,4,0,1,1,-4,0A4,4,0,1,1,4,0" style="fill: black; opacity: 0.3;"></path><path transform="translate(246.29606452679752,291.9426621315193)" d="M4,0A4,4,0,1,1,-4,0A4,4,0,1,1,4,0" style="fill: black; opacity: 0.3;"></path></g></g></g></g></g></svg>